<svg width="24" height="24" viewBox="0 0 24 24" fill="none" xmlns="http://www.w3.org/2000/svg">
<path d="M12.5348 9.91875C11.3582 11.0297 10.6223 12.6047 10.6223 14.3531C10.6223 15.7266 11.077 16.9922 11.841 18.0094L9.5207 20.3438C9.31445 20.2687 9.09414 20.2266 8.86445 20.2266C8.3582 20.2266 7.88477 20.4234 7.52852 20.7797C7.17227 21.1359 6.97539 21.6141 6.97539 22.1203C6.97539 22.6266 7.17227 23.1 7.52852 23.4562C7.88477 23.8125 8.36289 24 8.86445 24C9.3707 24 9.84414 23.8172 10.2051 23.4562C10.5613 23.1 10.7582 22.6219 10.7582 22.1203C10.7582 21.9234 10.7301 21.7359 10.6691 21.5531L13.0129 19.2C14.0441 19.9922 15.3285 20.4609 16.7301 20.4609C20.1004 20.4609 22.8238 17.7281 22.8238 14.3578C22.8238 11.3016 20.5879 8.77031 17.6582 8.325V5.4375C18.4785 5.09062 18.9801 4.32188 18.9801 3.42656C18.9801 2.20312 18.0004 1.18125 16.777 1.18125C15.5535 1.18125 14.5879 2.20312 14.5879 3.42656C14.5879 4.32188 15.0895 5.09062 15.9098 5.4375V8.30625C15.1973 8.40469 14.5223 8.62031 13.9082 8.94375C12.6145 7.96406 8.40039 4.92656 5.99102 3.09375C6.04727 2.8875 6.08477 2.67188 6.08477 2.44688C6.08477 1.09688 4.9832 0 3.62852 0C2.27852 0 1.18164 1.09688 1.18164 2.44688C1.18164 3.80156 2.27852 4.89844 3.62852 4.89844C4.08789 4.89844 4.51445 4.7625 4.88477 4.54219L12.5348 9.91875ZM16.7301 17.5875C14.9441 17.5875 13.4957 16.1391 13.4957 14.3531C13.4957 12.5672 14.9441 11.1187 16.7301 11.1187C18.516 11.1187 19.9645 12.5672 19.9645 14.3531C19.9645 16.1391 18.516 17.5875 16.7301 17.5875Z" fill="white"/>
</svg>
