<svg width="24" height="25" viewBox="0 0 24 25" fill="none" xmlns="http://www.w3.org/2000/svg">
<path d="M12 23C17.5229 23 22 18.5229 22 13C22 7.47715 17.5229 3 12 3C6.47715 3 2 7.47715 2 13C2 18.5229 6.47715 23 12 23Z" stroke="white" stroke-width="2" stroke-linecap="round" stroke-linejoin="round"/>
<path d="M2 13H22" stroke="white" stroke-width="1.5" stroke-linecap="round" stroke-linejoin="round"/>
<path d="M12 23C14.2092 23 16 18.5229 16 13C16 7.47715 14.2092 3 12 3C9.79085 3 8 7.47715 8 13C8 18.5229 9.79085 23 12 23Z" stroke="white" stroke-width="1.5" stroke-linecap="round" stroke-linejoin="round"/>
<path d="M4.92871 6.07129C6.73836 7.88094 9.23836 9.00024 11.9998 9.00024C14.7612 9.00024 17.2612 7.88094 19.0709 6.07129" stroke="white" stroke-width="1.5" stroke-linecap="round" stroke-linejoin="round"/>
<path d="M19.0709 19.9289C17.2612 18.1193 14.7612 17 11.9998 17C9.23836 17 6.73836 18.1193 4.92871 19.9289" stroke="white" stroke-width="1.5" stroke-linecap="round" stroke-linejoin="round"/>
</svg>
