<svg width="24" height="25" viewBox="0 0 24 25" fill="none" xmlns="http://www.w3.org/2000/svg">
<path d="M6.5 18.334L14 14.834L17.5 7.33398L10 10.834L6.5 18.334ZM12 13.834C11.7167 13.834 11.479 13.738 11.287 13.546C11.095 13.354 10.9993 13.1167 11 12.834C11 12.5507 11.096 12.313 11.288 12.121C11.48 11.929 11.7173 11.8333 12 11.834C12.2833 11.834 12.521 11.93 12.713 12.122C12.905 12.314 13.0007 12.5513 13 12.834C13 13.1173 12.904 13.355 12.712 13.547C12.52 13.739 12.2827 13.8347 12 13.834ZM12 22.834C10.6167 22.834 9.31667 22.5713 8.1 22.046C6.88333 21.5207 5.825 20.8083 4.925 19.909C4.025 19.009 3.31267 17.9507 2.788 16.734C2.26333 15.5173 2.00067 14.2173 2 12.834C2 11.4507 2.26267 10.1507 2.788 8.93398C3.31333 7.71732 4.02567 6.65898 4.925 5.75898C5.825 4.85898 6.88333 4.14665 8.1 3.62198C9.31667 3.09732 10.6167 2.83465 12 2.83398C13.3833 2.83398 14.6833 3.09665 15.9 3.62198C17.1167 4.14732 18.175 4.85965 19.075 5.75898C19.975 6.65898 20.6877 7.71732 21.213 8.93398C21.7383 10.1507 22.0007 11.4507 22 12.834C22 14.2173 21.7373 15.5173 21.212 16.734C20.6867 17.9507 19.9743 19.009 19.075 19.909C18.175 20.809 17.1167 21.5217 15.9 22.047C14.6833 22.5723 13.3833 22.8347 12 22.834Z" fill="white"/>
</svg>
