<svg width="14" height="14" viewBox="0 0 14 14" fill="none" xmlns="http://www.w3.org/2000/svg">
<path d="M3.25 0.125001C2.63193 0.125001 2.02775 0.308279 1.51384 0.651659C0.999941 0.995038 0.599402 1.4831 0.362878 2.05412C0.126354 2.62513 0.0644686 3.25347 0.185047 3.85966C0.305626 4.46585 0.603254 5.02267 1.04029 5.45971C1.47733 5.89675 2.03415 6.19438 2.64034 6.31495C3.24653 6.43553 3.87487 6.37365 4.44589 6.13712C5.01691 5.9006 5.50496 5.50006 5.84834 4.98616C6.19172 4.47225 6.375 3.86807 6.375 3.25C6.375 2.4212 6.04576 1.62634 5.45971 1.04029C4.87366 0.454241 4.0788 0.125001 3.25 0.125001ZM3.25 5.125C2.87916 5.125 2.51665 5.01503 2.20831 4.80901C1.89996 4.60298 1.65964 4.31014 1.51773 3.96753C1.37581 3.62492 1.33868 3.24792 1.41103 2.88421C1.48338 2.52049 1.66195 2.1864 1.92418 1.92418C2.1864 1.66195 2.52049 1.48338 2.88421 1.41103C3.24792 1.33868 3.62492 1.37581 3.96753 1.51773C4.31014 1.65964 4.60298 1.89996 4.80901 2.20831C5.01503 2.51665 5.125 2.87916 5.125 3.25C5.125 3.74728 4.92746 4.2242 4.57583 4.57583C4.2242 4.92746 3.74728 5.125 3.25 5.125ZM10.75 6.375C11.3681 6.375 11.9723 6.19172 12.4862 5.84834C13.0001 5.50496 13.4006 5.01691 13.6371 4.44589C13.8736 3.87487 13.9355 3.24653 13.815 2.64034C13.6944 2.03415 13.3967 1.47733 12.9597 1.04029C12.5227 0.603254 11.9658 0.305626 11.3597 0.185047C10.7535 0.0644686 10.1251 0.126354 9.55411 0.362878C8.9831 0.599402 8.49504 0.999941 8.15166 1.51384C7.80828 2.02775 7.625 2.63193 7.625 3.25C7.625 4.0788 7.95424 4.87366 8.54029 5.45971C9.12634 6.04576 9.9212 6.375 10.75 6.375ZM10.75 1.375C11.1208 1.375 11.4834 1.48497 11.7917 1.691C12.1 1.89702 12.3404 2.18986 12.4823 2.53247C12.6242 2.87508 12.6613 3.25208 12.589 3.6158C12.5166 3.97951 12.338 4.3136 12.0758 4.57583C11.8136 4.83805 11.4795 5.01663 11.1158 5.08897C10.7521 5.16132 10.3751 5.12419 10.0325 4.98228C9.68986 4.84036 9.39702 4.60004 9.19099 4.2917C8.98497 3.98335 8.875 3.62084 8.875 3.25C8.875 2.75272 9.07254 2.27581 9.42418 1.92418C9.77581 1.57255 10.2527 1.375 10.75 1.375ZM3.25 7.625C2.63193 7.625 2.02775 7.80828 1.51384 8.15166C0.999941 8.49504 0.599402 8.9831 0.362878 9.55411C0.126354 10.1251 0.0644686 10.7535 0.185047 11.3597C0.305626 11.9658 0.603254 12.5227 1.04029 12.9597C1.47733 13.3967 2.03415 13.6944 2.64034 13.815C3.24653 13.9355 3.87487 13.8736 4.44589 13.6371C5.01691 13.4006 5.50496 13.0001 5.84834 12.4862C6.19172 11.9723 6.375 11.3681 6.375 10.75C6.375 9.9212 6.04576 9.12634 5.45971 8.54029C4.87366 7.95424 4.0788 7.625 3.25 7.625ZM3.25 12.625C2.87916 12.625 2.51665 12.515 2.20831 12.309C1.89996 12.103 1.65964 11.8101 1.51773 11.4675C1.37581 11.1249 1.33868 10.7479 1.41103 10.3842C1.48338 10.0205 1.66195 9.6864 1.92418 9.42418C2.1864 9.16195 2.52049 8.98337 2.88421 8.91103C3.24792 8.83868 3.62492 8.87581 3.96753 9.01773C4.31014 9.15964 4.60298 9.39996 4.80901 9.70831C5.01503 10.0166 5.125 10.3792 5.125 10.75C5.125 11.2473 4.92746 11.7242 4.57583 12.0758C4.2242 12.4275 3.74728 12.625 3.25 12.625ZM10.75 7.625C10.1319 7.625 9.52775 7.80828 9.01384 8.15166C8.49994 8.49504 8.0994 8.9831 7.86288 9.55411C7.62635 10.1251 7.56447 10.7535 7.68505 11.3597C7.80562 11.9658 8.10325 12.5227 8.54029 12.9597C8.97733 13.3967 9.53415 13.6944 10.1403 13.815C10.7465 13.9355 11.3749 13.8736 11.9459 13.6371C12.5169 13.4006 13.005 13.0001 13.3483 12.4862C13.6917 11.9723 13.875 11.3681 13.875 10.75C13.875 9.9212 13.5458 9.12634 12.9597 8.54029C12.3737 7.95424 11.5788 7.625 10.75 7.625ZM10.75 12.625C10.3792 12.625 10.0166 12.515 9.70831 12.309C9.39996 12.103 9.15964 11.8101 9.01773 11.4675C8.87581 11.1249 8.83868 10.7479 8.91103 10.3842C8.98337 10.0205 9.16195 9.6864 9.42418 9.42418C9.6864 9.16195 10.0205 8.98337 10.3842 8.91103C10.7479 8.83868 11.1249 8.87581 11.4675 9.01773C11.8101 9.15964 12.103 9.39996 12.309 9.70831C12.515 10.0166 12.625 10.3792 12.625 10.75C12.625 11.2473 12.4275 11.7242 12.0758 12.0758C11.7242 12.4275 11.2473 12.625 10.75 12.625Z" fill="white"/>
</svg>
