<svg width="24" height="24" viewBox="0 0 24 24" fill="none" xmlns="http://www.w3.org/2000/svg">
<path fill-rule="evenodd" clip-rule="evenodd" d="M9.99616 4H14.0042C17.7822 4 19.6712 4 20.8442 5.172C21.7242 6.049 21.9442 7.326 22.0002 9.494C22.0072 9.772 21.7792 9.994 21.5102 10.065C21.082 10.1768 20.703 10.4274 20.4323 10.7775C20.1616 11.1276 20.0146 11.5575 20.0142 12C20.0142 12.929 20.6482 13.71 21.5082 13.935C21.7782 14.005 22.0062 14.227 21.9982 14.505C21.9432 16.675 21.7222 17.951 20.8442 18.828C19.6702 20 17.7822 20 14.0042 20H9.99616C6.21816 20 4.32916 20 3.15616 18.828C2.27616 17.951 2.05616 16.674 2.00016 14.506C1.99316 14.227 2.22116 14.006 2.49016 13.935C2.91839 13.8233 3.29752 13.5728 3.56821 13.2227C3.8389 12.8726 3.98589 12.4426 3.98616 12C3.98616 11.071 3.35216 10.29 2.49216 10.065C2.22216 9.995 1.99416 9.772 2.00216 9.495C2.05716 7.325 2.27816 6.049 3.15616 5.172C4.33016 4 6.21816 4 9.99616 4ZM12.9542 10.199L12.8562 10.023C12.4752 9.34 12.2852 9 12.0002 9C11.7152 9 11.5252 9.34 11.1442 10.023L11.0462 10.199C10.9382 10.393 10.8842 10.489 10.7992 10.553C10.7152 10.617 10.6092 10.641 10.3992 10.688L10.2092 10.732C9.46916 10.899 9.09916 10.982 9.01216 11.264C8.92416 11.547 9.17616 11.841 9.68016 12.429L9.81016 12.581C9.95316 12.748 10.0252 12.831 10.0572 12.935C10.0892 13.039 10.0792 13.15 10.0572 13.373L10.0372 13.576C9.96116 14.361 9.92316 14.754 10.1532 14.928C10.3832 15.102 10.7292 14.943 11.4222 14.625L11.6012 14.543C11.7972 14.453 11.8962 14.408 12.0002 14.408C12.1042 14.408 12.2032 14.453 12.4002 14.543L12.5782 14.625C13.2712 14.944 13.6172 15.102 13.8472 14.928C14.0772 14.754 14.0392 14.361 13.9632 13.576L13.9432 13.373C13.9212 13.15 13.9112 13.039 13.9432 12.935C13.9752 12.832 14.0472 12.748 14.1902 12.581L14.3202 12.429C14.8242 11.841 15.0762 11.547 14.9882 11.264C14.9002 10.982 14.5312 10.899 13.7912 10.732L13.6012 10.688C13.3912 10.641 13.2852 10.618 13.2012 10.553C13.1162 10.489 13.0622 10.393 12.9542 10.199Z" fill="white"/>
</svg>
