<svg width="24" height="24" viewBox="0 0 24 24" fill="none" xmlns="http://www.w3.org/2000/svg">
<g clip-path="url(#clip0_501_719)">
<path fill-rule="evenodd" clip-rule="evenodd" d="M12.8744 11.9999C12.8744 11.801 12.9535 11.6102 13.0941 11.4695C13.2348 11.3289 13.4255 11.2499 13.6244 11.2499H24.5974L22.6364 9.56987C22.5616 9.50579 22.5001 9.42759 22.4555 9.33974C22.4108 9.25188 22.3839 9.1561 22.3763 9.05786C22.3687 8.95961 22.3805 8.86083 22.4111 8.76715C22.4416 8.67347 22.4904 8.58673 22.5544 8.51187C22.6185 8.43702 22.6967 8.37552 22.7846 8.33089C22.8724 8.28626 22.9682 8.25937 23.0665 8.25176C23.1647 8.24414 23.2635 8.25595 23.3572 8.28651C23.4508 8.31708 23.5376 8.36579 23.6124 8.42987L27.1124 11.4299C27.1948 11.5003 27.2609 11.5877 27.3062 11.6861C27.3515 11.7845 27.375 11.8915 27.375 11.9999C27.375 12.1082 27.3515 12.2153 27.3062 12.3137C27.2609 12.4121 27.1948 12.4995 27.1124 12.5699L23.6124 15.5699C23.4613 15.6993 23.2649 15.7634 23.0665 15.748C22.868 15.7326 22.6839 15.639 22.5544 15.4879C22.425 15.3367 22.3609 15.1403 22.3763 14.9419C22.3917 14.7435 22.4853 14.5593 22.6364 14.4299L24.5964 12.7499H13.6244C13.4255 12.7499 13.2348 12.6709 13.0941 12.5302C12.9535 12.3896 12.8744 12.1988 12.8744 11.9999Z" fill="#FF2929"/>
<path d="M19.624 8C19.624 8.702 19.624 9.053 19.455 9.306C19.3822 9.41478 19.2888 9.50821 19.18 9.581C18.927 9.75 18.576 9.75 17.874 9.75H13.624C13.0273 9.75 12.455 9.98705 12.033 10.409C11.6111 10.831 11.374 11.4033 11.374 12C11.374 12.5967 11.6111 13.169 12.033 13.591C12.455 14.0129 13.0273 14.25 13.624 14.25H17.874C18.576 14.25 18.927 14.25 19.18 14.418C19.2889 14.4911 19.3823 14.5849 19.455 14.694C19.624 14.947 19.624 15.298 19.624 16C19.624 18.828 19.624 20.243 18.745 21.121C17.867 22 16.453 22 13.625 22H12.625C9.79502 22 8.38202 22 7.50302 21.121C6.62402 20.243 6.62402 18.828 6.62402 16V8C6.62402 5.172 6.62402 3.757 7.50302 2.879C8.38202 2 9.79602 2 12.624 2H13.624C16.453 2 17.867 2 18.745 2.879C19.624 3.757 19.624 5.172 19.624 8Z" fill="#FF2929"/>
</g>
<defs>
<clipPath id="clip0_501_719">
<rect width="24" height="24" fill="white" transform="matrix(-1 0 0 1 24 0)"/>
</clipPath>
</defs>
</svg>
